<mxfile host="app.diagrams.net" modified="2021-07-16T11:09:00.081Z" agent="5.0 (Windows NT 10.0; Win64; x64) AppleWebKit/537.36 (KHTML, like Gecko) Chrome/91.0.4472.124 Safari/537.36" etag="wDJZe5KhiAo5ve7-l649" version="14.8.6" type="github">
  <diagram id="C5RBs43oDa-KdzZeNtuy" name="Page-1">
    <mxGraphModel dx="1108" dy="482" grid="1" gridSize="10" guides="1" tooltips="1" connect="1" arrows="1" fold="1" page="1" pageScale="1" pageWidth="827" pageHeight="1169" math="0" shadow="0">
      <root>
        <mxCell id="WIyWlLk6GJQsqaUBKTNV-0" />
        <mxCell id="WIyWlLk6GJQsqaUBKTNV-1" parent="WIyWlLk6GJQsqaUBKTNV-0" />
        <mxCell id="WIyWlLk6GJQsqaUBKTNV-4" value="Yes" style="rounded=0;html=1;jettySize=auto;orthogonalLoop=1;fontSize=11;endArrow=block;endFill=0;endSize=8;strokeWidth=1;shadow=0;labelBackgroundColor=none;edgeStyle=orthogonalEdgeStyle;fontStyle=1;entryX=0.5;entryY=0;entryDx=0;entryDy=0;entryPerimeter=0;" parent="WIyWlLk6GJQsqaUBKTNV-1" edge="1" target="kq1nl4gFMCtAFIPx6vgy-6">
          <mxGeometry y="20" relative="1" as="geometry">
            <mxPoint as="offset" />
            <mxPoint x="90" y="550" as="targetPoint" />
            <mxPoint x="80" y="540" as="sourcePoint" />
            <Array as="points">
              <mxPoint x="80" y="540" />
            </Array>
          </mxGeometry>
        </mxCell>
        <mxCell id="WIyWlLk6GJQsqaUBKTNV-5" value="No" style="edgeStyle=orthogonalEdgeStyle;rounded=0;html=1;jettySize=auto;orthogonalLoop=1;fontSize=11;endArrow=block;endFill=0;endSize=8;strokeWidth=1;shadow=0;labelBackgroundColor=none;entryX=1;entryY=0.5;entryDx=0;entryDy=0;exitX=1;exitY=0.5;exitDx=0;exitDy=0;fontStyle=1" parent="WIyWlLk6GJQsqaUBKTNV-1" source="WIyWlLk6GJQsqaUBKTNV-6" target="kq1nl4gFMCtAFIPx6vgy-1" edge="1">
          <mxGeometry x="0.0286" y="-10" relative="1" as="geometry">
            <mxPoint as="offset" />
            <mxPoint x="250" y="339" as="targetPoint" />
            <Array as="points">
              <mxPoint x="290" y="494" />
              <mxPoint x="290" y="99" />
            </Array>
          </mxGeometry>
        </mxCell>
        <mxCell id="WIyWlLk6GJQsqaUBKTNV-6" value="Files Available?" style="rhombus;whiteSpace=wrap;html=1;shadow=0;fontFamily=Helvetica;fontSize=12;align=center;strokeWidth=1;spacing=6;spacingTop=-4;" parent="WIyWlLk6GJQsqaUBKTNV-1" vertex="1">
          <mxGeometry x="27.5" y="449" width="110" height="90" as="geometry" />
        </mxCell>
        <mxCell id="WIyWlLk6GJQsqaUBKTNV-9" value="Request Object" style="edgeStyle=orthogonalEdgeStyle;rounded=0;html=1;jettySize=auto;orthogonalLoop=1;fontSize=11;endArrow=block;endFill=0;endSize=8;strokeWidth=1;shadow=0;labelBackgroundColor=none;exitX=1;exitY=0.5;exitDx=0;exitDy=0;exitPerimeter=0;entryX=0.43;entryY=1.025;entryDx=0;entryDy=0;entryPerimeter=0;" parent="WIyWlLk6GJQsqaUBKTNV-1" source="kq1nl4gFMCtAFIPx6vgy-6" target="kq1nl4gFMCtAFIPx6vgy-38" edge="1">
          <mxGeometry y="10" relative="1" as="geometry">
            <mxPoint as="offset" />
            <mxPoint x="140" y="509" as="sourcePoint" />
            <mxPoint x="321" y="660" as="targetPoint" />
            <Array as="points">
              <mxPoint x="390" y="750" />
            </Array>
          </mxGeometry>
        </mxCell>
        <mxCell id="kq1nl4gFMCtAFIPx6vgy-1" value="Request Receiver" style="rounded=1;whiteSpace=wrap;html=1;fontSize=12;glass=0;strokeWidth=1;shadow=0;" parent="WIyWlLk6GJQsqaUBKTNV-1" vertex="1">
          <mxGeometry x="30" y="79" width="120" height="40" as="geometry" />
        </mxCell>
        <mxCell id="kq1nl4gFMCtAFIPx6vgy-6" value="Insert in Request Table" style="shape=cylinder3;whiteSpace=wrap;html=1;boundedLbl=1;backgroundOutline=1;size=15;" parent="WIyWlLk6GJQsqaUBKTNV-1" vertex="1">
          <mxGeometry x="50" y="710" width="60" height="80" as="geometry" />
        </mxCell>
        <mxCell id="RdGOt6yGtJzuH_gNXcca-31" value="" style="edgeStyle=orthogonalEdgeStyle;rounded=0;orthogonalLoop=1;jettySize=auto;html=1;fontSize=1;strokeWidth=0;" edge="1" parent="WIyWlLk6GJQsqaUBKTNV-1" source="kq1nl4gFMCtAFIPx6vgy-8" target="kq1nl4gFMCtAFIPx6vgy-16">
          <mxGeometry relative="1" as="geometry" />
        </mxCell>
        <mxCell id="kq1nl4gFMCtAFIPx6vgy-8" value="Request Processor" style="rounded=1;whiteSpace=wrap;html=1;fontSize=12;glass=0;strokeWidth=1;shadow=0;" parent="WIyWlLk6GJQsqaUBKTNV-1" vertex="1">
          <mxGeometry x="500" y="79" width="120" height="40" as="geometry" />
        </mxCell>
        <mxCell id="kq1nl4gFMCtAFIPx6vgy-14" value="" style="endArrow=classic;startArrow=classic;html=1;exitX=0.232;exitY=0.017;exitDx=0;exitDy=0;exitPerimeter=0;edgeStyle=orthogonalEdgeStyle;" parent="WIyWlLk6GJQsqaUBKTNV-1" edge="1" source="kq1nl4gFMCtAFIPx6vgy-38">
          <mxGeometry width="50" height="50" relative="1" as="geometry">
            <mxPoint x="356.95000000000005" y="439.98" as="sourcePoint" />
            <mxPoint x="560" y="150" as="targetPoint" />
            <Array as="points">
              <mxPoint x="390" y="510" />
              <mxPoint x="390" y="150" />
            </Array>
          </mxGeometry>
        </mxCell>
        <mxCell id="kq1nl4gFMCtAFIPx6vgy-15" value="" style="rounded=0;html=1;jettySize=auto;orthogonalLoop=1;fontSize=11;endArrow=block;endFill=0;endSize=8;strokeWidth=1;shadow=0;labelBackgroundColor=none;edgeStyle=orthogonalEdgeStyle;" parent="WIyWlLk6GJQsqaUBKTNV-1" edge="1">
          <mxGeometry relative="1" as="geometry">
            <mxPoint x="564.5" y="119" as="sourcePoint" />
            <mxPoint x="564.5" y="169" as="targetPoint" />
          </mxGeometry>
        </mxCell>
        <mxCell id="kq1nl4gFMCtAFIPx6vgy-16" value="Request found in Cache?" style="rhombus;whiteSpace=wrap;html=1;shadow=0;fontFamily=Helvetica;fontSize=12;align=center;strokeWidth=1;spacing=6;spacingTop=-4;" parent="WIyWlLk6GJQsqaUBKTNV-1" vertex="1">
          <mxGeometry x="500" y="169" width="130" height="100" as="geometry" />
        </mxCell>
        <mxCell id="kq1nl4gFMCtAFIPx6vgy-27" value="" style="rounded=0;html=1;jettySize=auto;orthogonalLoop=1;fontSize=11;endArrow=block;endFill=0;endSize=8;strokeWidth=1;shadow=0;labelBackgroundColor=none;edgeStyle=orthogonalEdgeStyle;exitX=0.5;exitY=1;exitDx=0;exitDy=0;" parent="WIyWlLk6GJQsqaUBKTNV-1" source="kq1nl4gFMCtAFIPx6vgy-16" edge="1">
          <mxGeometry relative="1" as="geometry">
            <mxPoint x="100" y="269" as="sourcePoint" />
            <mxPoint x="565" y="329" as="targetPoint" />
          </mxGeometry>
        </mxCell>
        <mxCell id="kq1nl4gFMCtAFIPx6vgy-29" value="Update Status of the Request to &quot;Started&quot;" style="shape=cylinder3;whiteSpace=wrap;html=1;boundedLbl=1;backgroundOutline=1;size=15;" parent="WIyWlLk6GJQsqaUBKTNV-1" vertex="1">
          <mxGeometry x="520" y="329" width="90" height="90" as="geometry" />
        </mxCell>
        <mxCell id="kq1nl4gFMCtAFIPx6vgy-31" value="" style="rounded=0;html=1;jettySize=auto;orthogonalLoop=1;fontSize=11;endArrow=block;endFill=0;endSize=8;strokeWidth=1;shadow=0;labelBackgroundColor=none;edgeStyle=orthogonalEdgeStyle;exitX=0.5;exitY=1;exitDx=0;exitDy=0;exitPerimeter=0;" parent="WIyWlLk6GJQsqaUBKTNV-1" source="kq1nl4gFMCtAFIPx6vgy-29" edge="1">
          <mxGeometry relative="1" as="geometry">
            <mxPoint x="575" y="449" as="sourcePoint" />
            <mxPoint x="565" y="479" as="targetPoint" />
          </mxGeometry>
        </mxCell>
        <mxCell id="kq1nl4gFMCtAFIPx6vgy-32" value="Prowide API" style="rounded=1;whiteSpace=wrap;html=1;" parent="WIyWlLk6GJQsqaUBKTNV-1" vertex="1">
          <mxGeometry x="520" y="479" width="100" height="60" as="geometry" />
        </mxCell>
        <mxCell id="kq1nl4gFMCtAFIPx6vgy-33" value="File data" style="text;html=1;align=center;verticalAlign=middle;resizable=0;points=[];autosize=1;strokeColor=none;" parent="WIyWlLk6GJQsqaUBKTNV-1" vertex="1">
          <mxGeometry x="570" y="439" width="60" height="20" as="geometry" />
        </mxCell>
        <mxCell id="kq1nl4gFMCtAFIPx6vgy-34" value="Has Acknowledgement?" style="rhombus;whiteSpace=wrap;html=1;shadow=0;fontFamily=Helvetica;fontSize=12;align=center;strokeWidth=1;spacing=6;spacingTop=-4;" parent="WIyWlLk6GJQsqaUBKTNV-1" vertex="1">
          <mxGeometry x="503.13" y="599" width="133.75" height="120" as="geometry" />
        </mxCell>
        <mxCell id="kq1nl4gFMCtAFIPx6vgy-35" value="Data" style="rounded=0;html=1;jettySize=auto;orthogonalLoop=1;fontSize=11;endArrow=block;endFill=0;endSize=8;strokeWidth=1;shadow=0;labelBackgroundColor=none;edgeStyle=orthogonalEdgeStyle;entryX=0.5;entryY=0;entryDx=0;entryDy=0;exitX=0.5;exitY=1;exitDx=0;exitDy=0;" parent="WIyWlLk6GJQsqaUBKTNV-1" source="kq1nl4gFMCtAFIPx6vgy-32" target="kq1nl4gFMCtAFIPx6vgy-34" edge="1">
          <mxGeometry y="20" relative="1" as="geometry">
            <mxPoint x="560" y="549" as="sourcePoint" />
            <mxPoint x="575" y="489" as="targetPoint" />
            <Array as="points">
              <mxPoint x="570" y="579" />
              <mxPoint x="570" y="579" />
            </Array>
            <mxPoint as="offset" />
          </mxGeometry>
        </mxCell>
        <mxCell id="kq1nl4gFMCtAFIPx6vgy-68" value="" style="edgeStyle=orthogonalEdgeStyle;rounded=0;orthogonalLoop=1;jettySize=auto;html=1;fontSize=1;strokeColor=#FFFFFF;" parent="WIyWlLk6GJQsqaUBKTNV-1" source="kq1nl4gFMCtAFIPx6vgy-37" target="kq1nl4gFMCtAFIPx6vgy-34" edge="1">
          <mxGeometry relative="1" as="geometry" />
        </mxCell>
        <mxCell id="kq1nl4gFMCtAFIPx6vgy-37" value="RabbitMQ" style="swimlane;" parent="WIyWlLk6GJQsqaUBKTNV-1" vertex="1">
          <mxGeometry x="710" y="629" width="110" height="60" as="geometry" />
        </mxCell>
        <mxCell id="kq1nl4gFMCtAFIPx6vgy-40" value="Yes" style="edgeStyle=orthogonalEdgeStyle;rounded=0;html=1;jettySize=auto;orthogonalLoop=1;fontSize=11;endArrow=block;endFill=0;endSize=8;strokeWidth=1;shadow=0;labelBackgroundColor=none;" parent="kq1nl4gFMCtAFIPx6vgy-37" edge="1">
          <mxGeometry y="10" relative="1" as="geometry">
            <mxPoint as="offset" />
            <mxPoint x="-70" y="29" as="sourcePoint" />
            <mxPoint y="29" as="targetPoint" />
            <Array as="points">
              <mxPoint x="-70" y="31" />
              <mxPoint x="-7" y="31" />
              <mxPoint x="-7" y="29" />
            </Array>
          </mxGeometry>
        </mxCell>
        <mxCell id="kq1nl4gFMCtAFIPx6vgy-75" style="edgeStyle=elbowEdgeStyle;rounded=0;orthogonalLoop=1;jettySize=auto;html=1;fontSize=11;strokeColor=#FFFFFF;entryX=0;entryY=0;entryDx=0;entryDy=60;entryPerimeter=0;" parent="WIyWlLk6GJQsqaUBKTNV-1" target="kq1nl4gFMCtAFIPx6vgy-29" edge="1">
          <mxGeometry relative="1" as="geometry">
            <mxPoint x="430" y="390" as="targetPoint" />
            <mxPoint x="430" y="390" as="sourcePoint" />
          </mxGeometry>
        </mxCell>
        <mxCell id="kq1nl4gFMCtAFIPx6vgy-38" value="NCache" style="shape=internalStorage;whiteSpace=wrap;html=1;backgroundOutline=1;" parent="WIyWlLk6GJQsqaUBKTNV-1" vertex="1">
          <mxGeometry x="318.56" y="508" width="166" height="121" as="geometry" />
        </mxCell>
        <mxCell id="kq1nl4gFMCtAFIPx6vgy-43" value="" style="rounded=0;html=1;jettySize=auto;orthogonalLoop=1;fontSize=11;endArrow=block;endFill=0;endSize=8;strokeWidth=1;shadow=0;labelBackgroundColor=none;edgeStyle=orthogonalEdgeStyle;exitX=0.5;exitY=1;exitDx=0;exitDy=0;" parent="WIyWlLk6GJQsqaUBKTNV-1" source="kq1nl4gFMCtAFIPx6vgy-37" edge="1">
          <mxGeometry relative="1" as="geometry">
            <mxPoint x="580" y="549" as="sourcePoint" />
            <mxPoint x="570" y="769" as="targetPoint" />
            <Array as="points">
              <mxPoint x="765" y="769" />
            </Array>
          </mxGeometry>
        </mxCell>
        <mxCell id="kq1nl4gFMCtAFIPx6vgy-44" value="Input Folder" style="shape=note;whiteSpace=wrap;html=1;backgroundOutline=1;darkOpacity=0.05;" parent="WIyWlLk6GJQsqaUBKTNV-1" vertex="1">
          <mxGeometry x="82.5" y="289" width="55" height="81" as="geometry" />
        </mxCell>
        <mxCell id="kq1nl4gFMCtAFIPx6vgy-45" value="Convert To CSV files" style="shape=process;whiteSpace=wrap;html=1;backgroundOutline=1;" parent="WIyWlLk6GJQsqaUBKTNV-1" vertex="1">
          <mxGeometry x="520" y="849" width="123.12" height="60" as="geometry" />
        </mxCell>
        <mxCell id="kq1nl4gFMCtAFIPx6vgy-48" value="No" style="rounded=0;html=1;jettySize=auto;orthogonalLoop=1;fontSize=11;endArrow=block;endFill=0;endSize=8;strokeWidth=1;shadow=0;labelBackgroundColor=none;edgeStyle=orthogonalEdgeStyle;exitX=0.5;exitY=1;exitDx=0;exitDy=0;" parent="WIyWlLk6GJQsqaUBKTNV-1" source="kq1nl4gFMCtAFIPx6vgy-34" edge="1">
          <mxGeometry x="-0.8462" y="20" relative="1" as="geometry">
            <mxPoint x="580" y="549" as="sourcePoint" />
            <mxPoint x="570" y="849" as="targetPoint" />
            <Array as="points">
              <mxPoint x="570" y="789" />
            </Array>
            <mxPoint as="offset" />
          </mxGeometry>
        </mxCell>
        <mxCell id="kq1nl4gFMCtAFIPx6vgy-50" value="No" style="rounded=0;html=1;jettySize=auto;orthogonalLoop=1;fontSize=1;endArrow=block;endFill=0;endSize=8;strokeWidth=1;shadow=0;labelBackgroundColor=none;edgeStyle=orthogonalEdgeStyle;" parent="WIyWlLk6GJQsqaUBKTNV-1" edge="1">
          <mxGeometry x="-0.3913" y="30" relative="1" as="geometry">
            <mxPoint x="570" y="799" as="sourcePoint" />
            <mxPoint x="390" y="849" as="targetPoint" />
            <Array as="points">
              <mxPoint x="390" y="799" />
            </Array>
            <mxPoint as="offset" />
          </mxGeometry>
        </mxCell>
        <mxCell id="kq1nl4gFMCtAFIPx6vgy-52" value="Convert To XML file" style="shape=process;whiteSpace=wrap;html=1;backgroundOutline=1;" parent="WIyWlLk6GJQsqaUBKTNV-1" vertex="1">
          <mxGeometry x="340" y="849" width="123.12" height="60" as="geometry" />
        </mxCell>
        <mxCell id="kq1nl4gFMCtAFIPx6vgy-54" value="No" style="rounded=0;html=1;jettySize=auto;orthogonalLoop=1;fontSize=1;endArrow=block;endFill=0;endSize=8;strokeWidth=1;shadow=0;labelBackgroundColor=none;edgeStyle=orthogonalEdgeStyle;exitX=0.5;exitY=1;exitDx=0;exitDy=0;" parent="WIyWlLk6GJQsqaUBKTNV-1" source="kq1nl4gFMCtAFIPx6vgy-52" edge="1">
          <mxGeometry x="-0.5965" y="78" relative="1" as="geometry">
            <mxPoint x="504" y="969" as="sourcePoint" />
            <mxPoint x="403" y="980" as="targetPoint" />
            <Array as="points">
              <mxPoint x="402" y="950" />
              <mxPoint x="403" y="950" />
            </Array>
            <mxPoint as="offset" />
          </mxGeometry>
        </mxCell>
        <mxCell id="kq1nl4gFMCtAFIPx6vgy-55" value="No" style="rounded=0;html=1;jettySize=auto;orthogonalLoop=1;fontSize=1;endArrow=block;endFill=0;endSize=8;strokeWidth=1;shadow=0;labelBackgroundColor=none;edgeStyle=orthogonalEdgeStyle;exitX=0.5;exitY=1;exitDx=0;exitDy=0;" parent="WIyWlLk6GJQsqaUBKTNV-1" source="kq1nl4gFMCtAFIPx6vgy-45" edge="1">
          <mxGeometry x="-0.8462" y="20" relative="1" as="geometry">
            <mxPoint x="411.55999999999995" y="919" as="sourcePoint" />
            <mxPoint x="610" y="980" as="targetPoint" />
            <Array as="points">
              <mxPoint x="610" y="909" />
            </Array>
            <mxPoint as="offset" />
          </mxGeometry>
        </mxCell>
        <mxCell id="kq1nl4gFMCtAFIPx6vgy-58" value="Update Status of the Request to &quot;Completed&quot;" style="shape=cylinder3;whiteSpace=wrap;html=1;boundedLbl=1;backgroundOutline=1;size=15;" parent="WIyWlLk6GJQsqaUBKTNV-1" vertex="1">
          <mxGeometry x="300" y="1190" width="90" height="90" as="geometry" />
        </mxCell>
        <mxCell id="kq1nl4gFMCtAFIPx6vgy-59" value="Make an entry in Response table for this request" style="shape=cylinder3;whiteSpace=wrap;html=1;boundedLbl=1;backgroundOutline=1;size=15;" parent="WIyWlLk6GJQsqaUBKTNV-1" vertex="1">
          <mxGeometry x="643.12" y="1181" width="90" height="90" as="geometry" />
        </mxCell>
        <mxCell id="kq1nl4gFMCtAFIPx6vgy-62" value="No" style="rounded=0;html=1;jettySize=auto;orthogonalLoop=1;fontSize=1;endArrow=block;endFill=0;endSize=8;strokeWidth=1;shadow=0;labelBackgroundColor=none;edgeStyle=orthogonalEdgeStyle;" parent="WIyWlLk6GJQsqaUBKTNV-1" target="kq1nl4gFMCtAFIPx6vgy-58" edge="1">
          <mxGeometry x="-0.7708" y="81" relative="1" as="geometry">
            <mxPoint x="500" y="1090" as="sourcePoint" />
            <mxPoint x="473.1199999999999" y="994" as="targetPoint" />
            <Array as="points">
              <mxPoint x="447" y="1090" />
              <mxPoint x="340" y="1090" />
            </Array>
            <mxPoint as="offset" />
          </mxGeometry>
        </mxCell>
        <mxCell id="kq1nl4gFMCtAFIPx6vgy-63" value="No" style="rounded=0;html=1;jettySize=auto;orthogonalLoop=1;fontSize=1;endArrow=block;endFill=0;endSize=8;strokeWidth=1;shadow=0;labelBackgroundColor=none;edgeStyle=orthogonalEdgeStyle;" parent="WIyWlLk6GJQsqaUBKTNV-1" edge="1" target="kq1nl4gFMCtAFIPx6vgy-59">
          <mxGeometry x="-0.5965" y="78" relative="1" as="geometry">
            <mxPoint x="440" y="1090" as="sourcePoint" />
            <mxPoint x="680" y="1069" as="targetPoint" />
            <Array as="points">
              <mxPoint x="482" y="1090" />
              <mxPoint x="680" y="1090" />
            </Array>
            <mxPoint as="offset" />
          </mxGeometry>
        </mxCell>
        <mxCell id="kq1nl4gFMCtAFIPx6vgy-64" value="SWIFT Service (Parser)" style="shape=ext;double=1;rounded=1;whiteSpace=wrap;html=1;" parent="WIyWlLk6GJQsqaUBKTNV-1" vertex="1">
          <mxGeometry x="270" y="10" width="140" height="50" as="geometry" />
        </mxCell>
        <mxCell id="kq1nl4gFMCtAFIPx6vgy-65" value="" style="rounded=0;html=1;jettySize=auto;orthogonalLoop=1;fontSize=11;endArrow=block;endFill=0;endSize=8;strokeWidth=1;shadow=0;labelBackgroundColor=none;edgeStyle=orthogonalEdgeStyle;exitX=0;exitY=0.5;exitDx=0;exitDy=0;" parent="WIyWlLk6GJQsqaUBKTNV-1" source="kq1nl4gFMCtAFIPx6vgy-64" edge="1">
          <mxGeometry relative="1" as="geometry">
            <mxPoint x="100" y="129" as="sourcePoint" />
            <mxPoint x="90" y="80" as="targetPoint" />
            <Array as="points" />
          </mxGeometry>
        </mxCell>
        <mxCell id="kq1nl4gFMCtAFIPx6vgy-66" value="" style="rounded=0;html=1;jettySize=auto;orthogonalLoop=1;fontSize=11;endArrow=block;endFill=0;endSize=8;strokeWidth=1;shadow=0;labelBackgroundColor=none;edgeStyle=orthogonalEdgeStyle;exitX=1;exitY=0.5;exitDx=0;exitDy=0;entryX=0.5;entryY=0;entryDx=0;entryDy=0;" parent="WIyWlLk6GJQsqaUBKTNV-1" source="kq1nl4gFMCtAFIPx6vgy-64" target="kq1nl4gFMCtAFIPx6vgy-8" edge="1">
          <mxGeometry relative="1" as="geometry">
            <mxPoint x="300" y="25" as="sourcePoint" />
            <mxPoint x="100" y="90" as="targetPoint" />
            <Array as="points" />
          </mxGeometry>
        </mxCell>
        <mxCell id="kq1nl4gFMCtAFIPx6vgy-69" value="No" style="edgeStyle=orthogonalEdgeStyle;rounded=0;html=1;jettySize=auto;orthogonalLoop=1;fontSize=11;endArrow=block;endFill=0;endSize=8;strokeWidth=1;shadow=0;labelBackgroundColor=none;entryX=1;entryY=0.5;entryDx=0;entryDy=0;exitX=1;exitY=0.5;exitDx=0;exitDy=0;fontStyle=1" parent="WIyWlLk6GJQsqaUBKTNV-1" source="kq1nl4gFMCtAFIPx6vgy-16" target="kq1nl4gFMCtAFIPx6vgy-8" edge="1">
          <mxGeometry x="0.0286" y="-10" relative="1" as="geometry">
            <mxPoint as="offset" />
            <mxPoint x="155" y="364" as="sourcePoint" />
            <mxPoint x="160" y="109" as="targetPoint" />
            <Array as="points">
              <mxPoint x="710" y="219" />
              <mxPoint x="710" y="99" />
            </Array>
          </mxGeometry>
        </mxCell>
        <mxCell id="kq1nl4gFMCtAFIPx6vgy-71" value="&lt;font style=&quot;font-size: 11px&quot;&gt;Yes&lt;/font&gt;" style="text;strokeColor=none;fillColor=none;html=1;fontSize=11;fontStyle=1;verticalAlign=middle;align=center;" parent="WIyWlLk6GJQsqaUBKTNV-1" vertex="1">
          <mxGeometry x="531.56" y="269" width="98.44" height="21" as="geometry" />
        </mxCell>
        <mxCell id="kq1nl4gFMCtAFIPx6vgy-73" style="edgeStyle=orthogonalEdgeStyle;rounded=0;orthogonalLoop=1;jettySize=auto;html=1;exitX=0;exitY=0;exitDx=50;exitDy=21;exitPerimeter=0;entryX=0;entryY=0;entryDx=50;entryDy=39;entryPerimeter=0;fontSize=11;strokeColor=#FFFFFF;" parent="WIyWlLk6GJQsqaUBKTNV-1" edge="1">
          <mxGeometry relative="1" as="geometry">
            <mxPoint x="449" y="400" as="sourcePoint" />
            <mxPoint x="431" y="400" as="targetPoint" />
          </mxGeometry>
        </mxCell>
        <mxCell id="kq1nl4gFMCtAFIPx6vgy-76" value="Request Object" style="text;html=1;strokeColor=none;fillColor=none;align=center;verticalAlign=middle;whiteSpace=wrap;rounded=0;fontSize=11;" parent="WIyWlLk6GJQsqaUBKTNV-1" vertex="1">
          <mxGeometry x="390" y="249" width="60" height="20" as="geometry" />
        </mxCell>
        <mxCell id="RdGOt6yGtJzuH_gNXcca-1" value="Input Folder" style="shape=note;whiteSpace=wrap;html=1;backgroundOutline=1;darkOpacity=0.05;" vertex="1" parent="WIyWlLk6GJQsqaUBKTNV-1">
          <mxGeometry x="160" y="289" width="55" height="81" as="geometry" />
        </mxCell>
        <mxCell id="RdGOt6yGtJzuH_gNXcca-3" value="Channel 1" style="whiteSpace=wrap;html=1;aspect=fixed;" vertex="1" parent="WIyWlLk6GJQsqaUBKTNV-1">
          <mxGeometry x="10" y="160" width="60" height="60" as="geometry" />
        </mxCell>
        <mxCell id="RdGOt6yGtJzuH_gNXcca-5" value="Input Folder" style="shape=note;whiteSpace=wrap;html=1;backgroundOutline=1;darkOpacity=0.05;" vertex="1" parent="WIyWlLk6GJQsqaUBKTNV-1">
          <mxGeometry x="15" y="290" width="55" height="81" as="geometry" />
        </mxCell>
        <mxCell id="RdGOt6yGtJzuH_gNXcca-6" value="Channel 2" style="whiteSpace=wrap;html=1;aspect=fixed;" vertex="1" parent="WIyWlLk6GJQsqaUBKTNV-1">
          <mxGeometry x="90" y="160" width="60" height="60" as="geometry" />
        </mxCell>
        <mxCell id="RdGOt6yGtJzuH_gNXcca-7" value="Channel 3" style="whiteSpace=wrap;html=1;aspect=fixed;" vertex="1" parent="WIyWlLk6GJQsqaUBKTNV-1">
          <mxGeometry x="170" y="160" width="60" height="60" as="geometry" />
        </mxCell>
        <mxCell id="RdGOt6yGtJzuH_gNXcca-14" value="Yes" style="edgeStyle=orthogonalEdgeStyle;rounded=0;html=1;jettySize=auto;orthogonalLoop=1;fontSize=1;endArrow=block;endFill=0;endSize=8;strokeWidth=1;shadow=0;labelBackgroundColor=none;" edge="1" parent="WIyWlLk6GJQsqaUBKTNV-1">
          <mxGeometry y="10" relative="1" as="geometry">
            <mxPoint as="offset" />
            <mxPoint x="570" y="298" as="sourcePoint" />
            <mxPoint x="810" y="298" as="targetPoint" />
            <Array as="points">
              <mxPoint x="640" y="298" />
              <mxPoint x="640" y="298" />
            </Array>
          </mxGeometry>
        </mxCell>
        <mxCell id="RdGOt6yGtJzuH_gNXcca-17" value="Yes" style="edgeStyle=orthogonalEdgeStyle;rounded=0;html=1;jettySize=auto;orthogonalLoop=1;fontSize=1;endArrow=block;endFill=0;endSize=8;strokeWidth=1;shadow=0;labelBackgroundColor=none;" edge="1" parent="WIyWlLk6GJQsqaUBKTNV-1">
          <mxGeometry y="10" relative="1" as="geometry">
            <mxPoint as="offset" />
            <mxPoint x="870" y="340" as="sourcePoint" />
            <mxPoint x="636.8800000000001" y="1020" as="targetPoint" />
            <Array as="points">
              <mxPoint x="870" y="380" />
              <mxPoint x="870" y="1020" />
            </Array>
          </mxGeometry>
        </mxCell>
        <mxCell id="RdGOt6yGtJzuH_gNXcca-20" value="" style="rounded=0;whiteSpace=wrap;html=1;" vertex="1" parent="WIyWlLk6GJQsqaUBKTNV-1">
          <mxGeometry x="370" y="980" width="270" height="80" as="geometry" />
        </mxCell>
        <mxCell id="RdGOt6yGtJzuH_gNXcca-21" value="Output Folder" style="shape=note;whiteSpace=wrap;html=1;backgroundOutline=1;darkOpacity=0.05;" vertex="1" parent="WIyWlLk6GJQsqaUBKTNV-1">
          <mxGeometry x="390" y="990" width="96.88" height="65" as="geometry" />
        </mxCell>
        <mxCell id="RdGOt6yGtJzuH_gNXcca-22" value="Output Folder" style="shape=note;whiteSpace=wrap;html=1;backgroundOutline=1;darkOpacity=0.05;" vertex="1" parent="WIyWlLk6GJQsqaUBKTNV-1">
          <mxGeometry x="520" y="990" width="100" height="65" as="geometry" />
        </mxCell>
        <mxCell id="RdGOt6yGtJzuH_gNXcca-27" value="Re" style="text;html=1;strokeColor=none;fillColor=none;align=center;verticalAlign=middle;whiteSpace=wrap;rounded=0;fontSize=1;" vertex="1" parent="WIyWlLk6GJQsqaUBKTNV-1">
          <mxGeometry x="630" y="269" width="40" height="20" as="geometry" />
        </mxCell>
        <mxCell id="RdGOt6yGtJzuH_gNXcca-32" value="" style="rounded=0;html=1;jettySize=auto;orthogonalLoop=1;fontSize=11;endArrow=block;endFill=0;endSize=8;strokeWidth=1;shadow=0;labelBackgroundColor=none;edgeStyle=orthogonalEdgeStyle;exitX=0.25;exitY=1;exitDx=0;exitDy=0;entryX=0.75;entryY=0;entryDx=0;entryDy=0;" edge="1" parent="WIyWlLk6GJQsqaUBKTNV-1" source="kq1nl4gFMCtAFIPx6vgy-1" target="RdGOt6yGtJzuH_gNXcca-3">
          <mxGeometry relative="1" as="geometry">
            <mxPoint x="280" y="45" as="sourcePoint" />
            <mxPoint x="100" y="90" as="targetPoint" />
            <Array as="points">
              <mxPoint x="55" y="119" />
            </Array>
          </mxGeometry>
        </mxCell>
        <mxCell id="RdGOt6yGtJzuH_gNXcca-33" value="" style="rounded=0;html=1;jettySize=auto;orthogonalLoop=1;fontSize=11;endArrow=block;endFill=0;endSize=8;strokeWidth=1;shadow=0;labelBackgroundColor=none;edgeStyle=orthogonalEdgeStyle;exitX=0.5;exitY=1;exitDx=0;exitDy=0;" edge="1" parent="WIyWlLk6GJQsqaUBKTNV-1" source="kq1nl4gFMCtAFIPx6vgy-1">
          <mxGeometry relative="1" as="geometry">
            <mxPoint x="70" y="129" as="sourcePoint" />
            <mxPoint x="112" y="155" as="targetPoint" />
            <Array as="points">
              <mxPoint x="112" y="119" />
            </Array>
          </mxGeometry>
        </mxCell>
        <mxCell id="RdGOt6yGtJzuH_gNXcca-34" value="" style="rounded=0;html=1;jettySize=auto;orthogonalLoop=1;fontSize=11;endArrow=block;endFill=0;endSize=8;strokeWidth=1;shadow=0;labelBackgroundColor=none;edgeStyle=orthogonalEdgeStyle;exitX=0.917;exitY=1.025;exitDx=0;exitDy=0;exitPerimeter=0;entryX=0.5;entryY=0;entryDx=0;entryDy=0;" edge="1" parent="WIyWlLk6GJQsqaUBKTNV-1" source="kq1nl4gFMCtAFIPx6vgy-1" target="RdGOt6yGtJzuH_gNXcca-7">
          <mxGeometry relative="1" as="geometry">
            <mxPoint x="100" y="129" as="sourcePoint" />
            <mxPoint x="122" y="165" as="targetPoint" />
            <Array as="points">
              <mxPoint x="140" y="129" />
              <mxPoint x="200" y="129" />
            </Array>
          </mxGeometry>
        </mxCell>
        <mxCell id="RdGOt6yGtJzuH_gNXcca-35" value="" style="rounded=0;html=1;jettySize=auto;orthogonalLoop=1;fontSize=11;endArrow=block;endFill=0;endSize=8;strokeWidth=1;shadow=0;labelBackgroundColor=none;edgeStyle=orthogonalEdgeStyle;exitX=0.5;exitY=1;exitDx=0;exitDy=0;entryX=0;entryY=0;entryDx=12.5;entryDy=0;entryPerimeter=0;" edge="1" parent="WIyWlLk6GJQsqaUBKTNV-1" source="RdGOt6yGtJzuH_gNXcca-3" target="RdGOt6yGtJzuH_gNXcca-5">
          <mxGeometry relative="1" as="geometry">
            <mxPoint x="70" y="129" as="sourcePoint" />
            <mxPoint x="65" y="170" as="targetPoint" />
            <Array as="points">
              <mxPoint x="28" y="220" />
              <mxPoint x="28" y="250" />
            </Array>
          </mxGeometry>
        </mxCell>
        <mxCell id="RdGOt6yGtJzuH_gNXcca-37" value="" style="rounded=0;html=1;jettySize=auto;orthogonalLoop=1;fontSize=11;endArrow=block;endFill=0;endSize=8;strokeWidth=1;shadow=0;labelBackgroundColor=none;edgeStyle=orthogonalEdgeStyle;exitX=0.5;exitY=1;exitDx=0;exitDy=0;entryX=0;entryY=0;entryDx=12.5;entryDy=0;entryPerimeter=0;" edge="1" parent="WIyWlLk6GJQsqaUBKTNV-1">
          <mxGeometry relative="1" as="geometry">
            <mxPoint x="122.5" y="220" as="sourcePoint" />
            <mxPoint x="110" y="290" as="targetPoint" />
            <Array as="points">
              <mxPoint x="110.5" y="220" />
              <mxPoint x="110.5" y="250" />
            </Array>
          </mxGeometry>
        </mxCell>
        <mxCell id="RdGOt6yGtJzuH_gNXcca-38" value="" style="rounded=0;html=1;jettySize=auto;orthogonalLoop=1;fontSize=11;endArrow=block;endFill=0;endSize=8;strokeWidth=1;shadow=0;labelBackgroundColor=none;edgeStyle=orthogonalEdgeStyle;exitX=0.5;exitY=1;exitDx=0;exitDy=0;entryX=0;entryY=0;entryDx=12.5;entryDy=0;entryPerimeter=0;" edge="1" parent="WIyWlLk6GJQsqaUBKTNV-1">
          <mxGeometry relative="1" as="geometry">
            <mxPoint x="192.5" y="219" as="sourcePoint" />
            <mxPoint x="180" y="289" as="targetPoint" />
            <Array as="points">
              <mxPoint x="180.5" y="219" />
              <mxPoint x="180.5" y="249" />
            </Array>
          </mxGeometry>
        </mxCell>
        <mxCell id="RdGOt6yGtJzuH_gNXcca-39" value="&lt;font size=&quot;1&quot;&gt;&lt;b style=&quot;font-size: 12px&quot;&gt;Output Folders&lt;/b&gt;&lt;/font&gt;" style="text;html=1;strokeColor=none;fillColor=none;align=center;verticalAlign=middle;whiteSpace=wrap;rounded=0;fontSize=11;" vertex="1" parent="WIyWlLk6GJQsqaUBKTNV-1">
          <mxGeometry x="460" y="950" width="90" height="20" as="geometry" />
        </mxCell>
        <mxCell id="RdGOt6yGtJzuH_gNXcca-40" value="&lt;font style=&quot;font-size: 11px&quot;&gt;Request ID&lt;/font&gt;" style="text;html=1;strokeColor=none;fillColor=none;align=center;verticalAlign=middle;whiteSpace=wrap;rounded=0;fontSize=11;" vertex="1" parent="WIyWlLk6GJQsqaUBKTNV-1">
          <mxGeometry x="653.12" y="270" width="80" height="20" as="geometry" />
        </mxCell>
        <mxCell id="RdGOt6yGtJzuH_gNXcca-41" value="Get Output Channel details for this request ID" style="shape=cylinder3;whiteSpace=wrap;html=1;boundedLbl=1;backgroundOutline=1;size=15;" vertex="1" parent="WIyWlLk6GJQsqaUBKTNV-1">
          <mxGeometry x="810" y="249" width="90" height="90" as="geometry" />
        </mxCell>
        <mxCell id="RdGOt6yGtJzuH_gNXcca-42" value="No" style="rounded=0;html=1;jettySize=auto;orthogonalLoop=1;fontSize=1;endArrow=block;endFill=0;endSize=8;strokeWidth=1;shadow=0;labelBackgroundColor=none;edgeStyle=orthogonalEdgeStyle;exitX=0.537;exitY=1;exitDx=0;exitDy=0;exitPerimeter=0;" edge="1" parent="WIyWlLk6GJQsqaUBKTNV-1" source="RdGOt6yGtJzuH_gNXcca-20">
          <mxGeometry x="-0.5965" y="78" relative="1" as="geometry">
            <mxPoint x="411.55999999999995" y="919" as="sourcePoint" />
            <mxPoint x="515" y="1090" as="targetPoint" />
            <Array as="points">
              <mxPoint x="515" y="1070" />
              <mxPoint x="515" y="1070" />
            </Array>
            <mxPoint as="offset" />
          </mxGeometry>
        </mxCell>
        <mxCell id="RdGOt6yGtJzuH_gNXcca-43" value="" style="rounded=0;html=1;jettySize=auto;orthogonalLoop=1;fontSize=11;endArrow=block;endFill=0;endSize=8;strokeWidth=1;shadow=0;labelBackgroundColor=none;edgeStyle=orthogonalEdgeStyle;" edge="1" parent="WIyWlLk6GJQsqaUBKTNV-1" target="WIyWlLk6GJQsqaUBKTNV-6">
          <mxGeometry relative="1" as="geometry">
            <mxPoint x="50" y="370" as="sourcePoint" />
            <mxPoint x="37.5" y="300" as="targetPoint" />
            <Array as="points">
              <mxPoint x="50" y="420" />
              <mxPoint x="50" y="420" />
            </Array>
          </mxGeometry>
        </mxCell>
        <mxCell id="RdGOt6yGtJzuH_gNXcca-48" value="" style="rounded=0;html=1;jettySize=auto;orthogonalLoop=1;fontSize=11;endArrow=block;endFill=0;endSize=8;strokeWidth=1;shadow=0;labelBackgroundColor=none;edgeStyle=orthogonalEdgeStyle;exitX=0.5;exitY=1;exitDx=0;exitDy=0;exitPerimeter=0;" edge="1" parent="WIyWlLk6GJQsqaUBKTNV-1" source="kq1nl4gFMCtAFIPx6vgy-44">
          <mxGeometry relative="1" as="geometry">
            <mxPoint x="60" y="380" as="sourcePoint" />
            <mxPoint x="93" y="459.4090909090909" as="targetPoint" />
            <Array as="points">
              <mxPoint x="93" y="370" />
            </Array>
          </mxGeometry>
        </mxCell>
        <mxCell id="RdGOt6yGtJzuH_gNXcca-49" value="" style="rounded=0;html=1;jettySize=auto;orthogonalLoop=1;fontSize=11;endArrow=block;endFill=0;endSize=8;strokeWidth=1;shadow=0;labelBackgroundColor=none;edgeStyle=orthogonalEdgeStyle;exitX=0.5;exitY=1;exitDx=0;exitDy=0;exitPerimeter=0;" edge="1" parent="WIyWlLk6GJQsqaUBKTNV-1" source="RdGOt6yGtJzuH_gNXcca-1">
          <mxGeometry relative="1" as="geometry">
            <mxPoint x="132.5" y="380" as="sourcePoint" />
            <mxPoint x="103" y="469.4090909090909" as="targetPoint" />
            <Array as="points">
              <mxPoint x="188" y="380" />
              <mxPoint x="120" y="380" />
              <mxPoint x="120" y="469" />
            </Array>
          </mxGeometry>
        </mxCell>
      </root>
    </mxGraphModel>
  </diagram>
</mxfile>
